<svg width="806" height="665" viewBox="0 0 806 665" fill="none" xmlns="http://www.w3.org/2000/svg">
<path fill-rule="evenodd" clip-rule="evenodd" d="M0 45.5C0 20.371 20.371 0 45.5 0H66H630H634C659.129 0 679.5 20.371 679.5 45.5V86V216.5H670.5V133.5H629.966H65.5459H9V369V401C9 421.158 25.3416 437.5 45.5 437.5H66H125.5V446.5H66H45.5C20.371 446.5 0 426.129 0 401V369V86V45.5ZM32.2845 54.5L9 109.287V86V54.5H32.2845ZM9.29048 126.5L39.8905 54.5H65.5459H74.1256L35.635 126.5H9.29048ZM43.5725 126.5H65.5459H89.635L128.126 54.5H82.0631L43.5725 126.5ZM152.107 126.5H197.635L236.126 54.5H190.598L152.107 126.5ZM252.17 126.5H205.573L244.063 54.5H290.66L252.17 126.5ZM260.107 126.5H306.17L344.66 54.5H298.598L260.107 126.5ZM360.17 126.5H314.107L352.598 54.5H398.66L360.17 126.5ZM368.107 126.5H413.635L452.126 54.5H406.598L368.107 126.5ZM467.635 126.5H421.573L460.063 54.5H506.126L467.635 126.5ZM475.573 126.5H522.17L560.66 54.5H514.063L475.573 126.5ZM576.17 126.5H530.107L568.598 54.5H614.66L576.17 126.5ZM584.107 126.5H629.966H630.17L668.66 54.5H629.966H622.598L584.107 126.5ZM144.17 126.5L182.66 54.5H136.063L97.5725 126.5H144.17ZM670.5 126.5H638.107L670.5 65.9062V86V126.5ZM670.5 47.5H629.966H65.5459H9V45.5C9 25.3416 25.3416 9 45.5 9H66H630H634C654.158 9 670.5 25.3416 670.5 45.5V47.5ZM158 250H162H168.971H232.899H238H242V254V267.971V316.486V329V333H238H232.899H168.971H162H158V329V316.486V267.971V254V250ZM166 258V267.971V316.486V325H168.971H232.899H234V316.486V267.971V258H232.899H168.971H166ZM183 455.981V466.33V469H184.559H198.859H200V466.33V455.981V453H198.859H184.559H183V455.981ZM717 466.33V455.981V453H718.559H732.859H734V455.981V466.33V469H732.859H718.559H717V466.33ZM230 455.981V466.33V469H231.559H245.859H247V466.33V455.981V453H245.859H231.559H230V455.981ZM278 466.33V455.981V453H279.559H293.859H295V455.981V466.33V469H293.859H279.559H278V466.33ZM329 455.981V466.33V469H330.559H344.859H346V466.33V455.981V453H344.859H330.559H329V455.981ZM380 466.33V455.981V453H381.559H395.859H397V455.981V466.33V469H395.859H381.559H380V466.33ZM431 455.981V466.33V469H432.559H446.859H448V466.33V455.981V453H446.859H432.559H431V455.981ZM477 466.33V455.981V453H478.559H492.859H494V455.981V466.33V469H492.859H478.559H477V466.33ZM523 455.981V466.33V469H524.559H538.859H540V466.33V455.981V453H538.859H524.559H523V455.981ZM569 466.33V455.981V453H570.559H584.859H586V455.981V466.33V469H584.859H570.559H569V466.33ZM615 455.981V466.33V469H616.559H630.859H632V466.33V455.981V453H630.859H616.559H615V455.981ZM666 466.33V455.981V453H667.559H681.859H683V455.981V466.33V469H681.859H667.559H666V466.33ZM126.5 264C126.5 238.871 146.871 218.5 172 218.5H192.5H756.5H760.5C785.629 218.5 806 238.871 806 264V304.5V587.5V619.5C806 644.629 785.629 665 760.5 665H756.5H192.5H172C146.871 665 126.5 644.629 126.5 619.5V587.5V304.5V264ZM172 227.5C151.842 227.5 135.5 243.842 135.5 264V304.5V587.5V619.5C135.5 639.658 151.842 656 172 656H192.5H756.5H760.5C780.658 656 797 639.658 797 619.5V587.5V304.5V264C797 243.842 780.658 227.5 760.5 227.5H756.5H192.5H172ZM287.5 552.5H183V539.5H287.5V552.5ZM339 552.5H436.5V539.5H339V552.5ZM484 636H184V623H484V636ZM748.397 550.279C736.154 530.192 710.885 522.343 689.416 531.958L668.988 541.107C653.089 548.227 634.766 547.456 619.521 539.025L612.803 535.31C591.369 523.456 564.686 527.155 547.285 544.392L543.617 548.026C528.602 562.899 525.036 585.823 534.824 604.554C544.336 622.759 564.347 632.929 584.66 629.882L629.087 623.218C638.611 621.789 648.3 621.863 657.801 623.437L690.124 628.791C712.667 632.525 735.162 621.885 746.576 602.089L748.977 597.924C757.507 583.13 757.285 564.86 748.397 550.279ZM693.503 541.085C710.376 533.528 730.236 539.697 739.858 555.483C746.843 566.943 747.018 581.302 740.314 592.929L737.913 597.094C728.581 613.279 710.189 621.979 691.758 618.926L659.435 613.571C648.903 611.827 638.162 611.745 627.604 613.328L583.177 619.993C567.081 622.407 551.224 614.348 543.687 599.923C535.931 585.08 538.757 566.916 550.654 555.13L554.322 551.497C568.569 537.384 590.415 534.356 607.963 544.061L614.682 547.776C632.678 557.729 654.307 558.639 673.075 550.233L693.503 541.085Z" fill="black"/>
</svg>
