<svg width="680" height="447" viewBox="0 0 680 447" fill="none" xmlns="http://www.w3.org/2000/svg">
<path fill-rule="evenodd" clip-rule="evenodd" d="M79.1047 0C69.8708 0 60.7236 1.78105 52.1642 5.24555C32.0253 13.397 16.66 30.2285 10.3727 51.025L4.79571 69.4719C1.61586 79.9899 0 90.9183 0 101.906V345.026C0 361.493 3.87413 377.73 11.3093 392.423L12.3271 394.434C18.6574 406.944 27.6803 417.897 38.7472 426.504C55.4097 439.464 75.9165 446.5 97.0255 446.5H612.063C624.641 446.5 636.947 442.836 647.477 435.957C662.857 425.909 673.244 409.801 676.052 391.646L678.344 376.821C679.114 371.845 679.5 366.817 679.5 361.782V94.7561C679.5 88.6926 679.025 82.6385 678.079 76.6492L675.714 61.667C673.115 45.2062 664.966 30.1287 652.621 18.9352C639.181 6.74955 621.688 0 603.546 0H79.1047ZM55.541 13.5881C63.0275 10.5578 71.0282 9 79.1047 9H603.546C619.453 9 634.791 14.9181 646.576 25.6027C657.4 35.4173 664.545 48.6376 666.824 63.0706L669.189 78.0529C670.062 83.5779 670.5 89.1627 670.5 94.7561V361.782C670.5 366.357 670.149 370.924 669.45 375.445L667.157 390.271C664.74 405.902 655.797 419.771 642.555 428.422C633.488 434.346 622.893 437.5 612.063 437.5H97.0255C77.9179 437.5 59.3553 431.131 44.2727 419.4C34.255 411.609 26.0876 401.695 20.3575 390.371L19.3397 388.359C12.542 374.926 9 360.081 9 345.026V101.906C9 91.8007 10.4861 81.7498 13.4106 72.0764L18.9876 53.6295C24.4868 35.4397 37.9262 20.7178 55.541 13.5881ZM67.6353 73C48.5068 73 33 88.5068 33 107.635V131.768V321.944V340.365C33 359.493 48.5068 375 67.6353 375H348.584C363.173 375 375 363.173 375 348.584V321.944V131.768V99.4161C375 84.8269 363.173 73 348.584 73H67.6353ZM41 107.635C41 92.9251 52.925 81 67.6353 81H348.584C358.755 81 367 89.2452 367 99.4161V131.768V321.944V348.584C367 350.79 366.612 352.905 365.901 354.865L338.645 326.7L331.157 317.106C325.194 309.466 316.043 305 306.351 305C293.951 305 283.511 295.724 282.053 283.41L281.502 278.756C280.9 273.672 281.621 268.519 283.594 263.795L289.586 249.45C294.48 237.734 297 225.164 297 212.467V183.923C297 174.611 295.223 165.383 291.764 156.737C286.94 144.676 278.993 134.116 268.74 126.141L256.649 116.737L256.568 116.674L256.483 116.616L252.12 113.616C249.437 111.772 246.508 110.313 243.419 109.284C239.875 108.102 236.163 107.5 232.427 107.5H224H214H206.233C205.602 107.5 204.978 107.362 204.406 107.096L190.722 100.726C183.776 97.492 177.08 105.624 181.587 111.82C181.753 112.048 181.653 112.372 181.387 112.467L162.118 119.349C159.16 120.405 156.452 122.063 154.167 124.218L150.004 128.143C142.714 135.016 137.655 143.92 135.481 153.701L130.626 175.551C129.213 181.908 128.5 188.401 128.5 194.914V210.2C128.5 228.493 137.061 245.732 151.635 256.788L163.339 265.668C168.795 269.807 172 276.26 172 283.109C172 295.199 162.199 305 150.109 305H128.687C120.44 305 112.319 307.027 105.04 310.903L90.7543 318.51C81.2447 323.573 72.4928 329.946 64.7547 337.443L45.8767 355.731C42.805 351.389 41 346.088 41 340.365V321.944V131.768V107.635ZM333.485 331.434L362.142 361.047C358.777 364.707 353.948 367 348.584 367H67.6353C61.1719 367 55.2462 364.698 50.6335 360.869L69.6253 342.47C76.8929 335.43 85.1128 329.444 94.0442 324.688L108.33 317.082C114.596 313.745 121.587 312 128.687 312H150.109C166.065 312 179 299.065 179 283.109C179 274.071 174.771 265.554 167.57 260.091L155.865 251.212C143.036 241.479 135.5 226.303 135.5 210.2V194.914C135.5 188.912 136.157 182.928 137.459 177.069L142.314 155.22C144.184 146.807 148.536 139.148 154.806 133.236L158.969 129.311C160.551 127.82 162.425 126.672 164.472 125.941L183.742 119.059C188.408 117.392 190.162 111.71 187.248 107.703C187.182 107.612 187.16 107.551 187.152 107.525C187.144 107.497 187.142 107.474 187.144 107.45C187.147 107.396 187.175 107.294 187.264 107.186C187.352 107.078 187.447 107.032 187.5 107.018C187.523 107.012 187.546 107.009 187.574 107.012C187.602 107.014 187.666 107.024 187.768 107.072L201.452 113.442C202.949 114.139 204.581 114.5 206.233 114.5H214H224H232.427C235.411 114.5 238.375 114.981 241.206 115.925C243.673 116.747 246.012 117.912 248.154 119.385L252.432 122.326L264.442 131.667C273.715 138.879 280.902 148.429 285.265 159.337C288.393 167.156 290 175.501 290 183.923V212.467C290 224.238 287.664 235.891 283.127 246.752L277.135 261.097C274.697 266.933 273.807 273.299 274.551 279.579L275.102 284.233C276.977 300.07 290.403 312 306.351 312C313.887 312 321.002 315.473 325.639 321.413L333.241 331.153L333.355 331.3L333.485 331.434ZM416 87.5H517.5V77.5H416V87.5ZM416 125.5H620.5V115.5H416V125.5ZM416 265H485.5V255H416V265ZM546.5 265H604.5V255H546.5V265ZM416 360.5H620.5V350.5H416V360.5Z" fill="black"/>
</svg>
