<svg width="262" height="195" viewBox="0 0 262 195" fill="none" xmlns="http://www.w3.org/2000/svg">
<path d="M230.612 42.1116L230.483 42.0653C228.524 41.3657 226.765 40.1985 225.36 38.6651C223.199 36.3077 222 33.226 222 30.028V29C222 26.0847 222.979 23.2539 224.78 20.9616L225.849 19.6008C226.936 18.2174 228.316 17.092 229.89 16.3052C232.831 14.8343 236.25 14.6449 239.337 15.782L240.432 16.1854C242.772 17.0475 244.852 18.4939 246.475 20.3871L246.776 20.739C248.857 23.166 250 26.257 250 29.4535V29.8657C250 33.1532 248.694 36.3059 246.37 38.6305C244.818 40.1823 242.882 41.2943 240.759 41.8528L238.492 42.4494C235.892 43.1338 233.145 43.016 230.612 42.1116Z" stroke="black" stroke-width="4"/>
<path d="M226.834 61.675L226.922 61.6452C227.384 61.4885 227.802 61.2237 228.141 60.8727C228.692 60.302 229 59.5396 229 58.7463V58.5593C229 57.8692 228.759 57.2006 228.319 56.669L228.058 56.3535C227.773 56.009 227.416 55.7312 227.012 55.5394C226.283 55.1938 225.448 55.1492 224.687 55.4153L224.343 55.5358C223.79 55.7292 223.294 56.0583 222.902 56.4931L222.789 56.6179C222.281 57.1802 222 57.911 222 58.6686V58.7005C222 59.5194 222.336 60.3023 222.93 60.866C223.304 61.2205 223.763 61.4724 224.262 61.5971L224.893 61.7547C225.534 61.9149 226.208 61.8872 226.834 61.675Z" fill="black" stroke="black" stroke-width="2"/>
<path d="M247.834 61.675L247.922 61.6452C248.384 61.4885 248.802 61.2237 249.141 60.8727C249.692 60.302 250 59.5396 250 58.7463V58.5593C250 57.8692 249.759 57.2006 249.319 56.669L249.058 56.3535C248.773 56.009 248.416 55.7312 248.012 55.5394C247.283 55.1938 246.448 55.1492 245.687 55.4153L245.343 55.5358C244.79 55.7292 244.294 56.0583 243.902 56.4931L243.789 56.6179C243.281 57.1802 243 57.911 243 58.6686V58.7005C243 59.5194 243.336 60.3023 243.93 60.866C244.304 61.2205 244.763 61.4724 245.262 61.5971L245.893 61.7547C246.534 61.9149 247.208 61.8872 247.834 61.675Z" fill="black" stroke="black" stroke-width="2"/>
<path d="M229.932 34.5635L229.865 34.486C228.662 33.0842 228 31.2979 228 29.4505V28.6525C228 26.8689 228.57 25.1319 229.627 23.6952L230.258 22.8385C230.84 22.0466 231.593 21.3953 232.46 20.9322C234.162 20.0235 236.177 19.9069 237.973 20.6132L238.588 20.8554C239.888 21.3667 241.031 22.2085 241.906 23.2975L242.111 23.5539C243.334 25.0768 244 26.9711 244 28.9239V29.3738C244 31.2626 243.282 33.0807 241.99 34.4593C241.062 35.4506 239.88 36.1688 238.573 36.5362L237.474 36.845C235.96 37.2704 234.35 37.1975 232.88 36.6372C231.74 36.2024 230.726 35.4895 229.932 34.5635Z" stroke="black" stroke-width="4"/>
<path d="M212 155V30.9083C212 24.4767 214.086 18.2186 217.945 13.0733L218.264 12.6478C220.075 10.2335 222.283 8.14472 224.794 6.47072L226.96 5.0267C229.92 3.05314 233.399 2 236.956 2C239.939 2 242.875 2.74015 245.5 4.15409L247.46 5.20905C252.028 7.66904 255.67 11.5521 257.832 16.269C259.26 19.3863 260 22.7751 260 26.2043V155V166.534C260 171.083 258.697 175.536 256.245 179.367L256.026 179.71C253.412 183.795 249.552 186.929 245.018 188.648C240.155 190.493 234.806 190.602 229.872 188.957L228.312 188.438C223.558 186.853 219.424 183.811 216.496 179.745C213.573 175.685 212 170.808 212 165.805V155Z" stroke="black" stroke-width="4"/>
<path d="M3 122.862C3 143.86 2.99999 168.896 6.3151 180.106C7.05535 182.609 8.7966 184.615 10.7736 186.32V186.32C15.0237 189.984 20.4488 192 26.0606 192H179.286C185.295 192 191.081 189.718 195.473 185.616V185.616C200.274 181.131 203 174.865 203 168.295C203 156.838 203 138.129 203 124.41M3 122.862L4.15933 112.46C4.77571 106.929 7.70993 101.92 12.2324 98.6774V98.6774C15.5679 96.2861 19.5688 95 23.673 95H180.53C184.11 95 187.639 95.8558 190.823 97.4961V97.4961C198.301 101.35 203 109.058 203 117.47C203 119.889 203 122.303 203 124.41M3 122.862L12.0886 126.453C15.5944 127.839 19.2355 128.853 22.9525 129.48L41.8298 132.665L75.8723 136.277H129.064L161.511 132.665L185.979 128.537L203 124.41" stroke="black" stroke-width="5"/>
</svg>
